<svg id="圖層_1" data-name="圖層 1" xmlns="http://www.w3.org/2000/svg" xmlns:xlink="http://www.w3.org/1999/xlink" viewBox="0 0 350 350"><defs><style>.cls-1,.cls-4{fill:none;}.cls-2{fill:#fff;stroke-miterlimit:10;stroke-width:2.18px;}.cls-2,.cls-4{stroke:#231815;}.cls-3{fill:#211513;}.cls-4{stroke-linecap:round;stroke-linejoin:round;stroke-width:5.23px;}.cls-5{clip-path:url(#clip-path);}.cls-6{fill:#f5eb47;}</style><clipPath id="clip-path"><path class="cls-1" d="M298.64,175A123.64,123.64,0,1,1,175,51.37,123.64,123.64,0,0,1,298.64,175Z"/></clipPath></defs><title>logo</title><path class="cls-2" d="M345,175A170,170,0,1,1,175,5,170,170,0,0,1,345,175Z"/><path class="cls-3" d="M38.62,254.74,57.07,242.9l7.36,11.46-2.27,1.46-5.54-8.64-5.57,3.57,4.27,6.66-2.15,1.38-4.3-6.7-6.2,4,5.57,8.68L46,266.2Z"/><path class="cls-3" d="M63.41,287.71l1-24.52L52,274.24,50,271.92,66.71,257l.61.7-1.09,24.4,12.33-11,2.12,2.37L64,288.34Z"/><path class="cls-3" d="M96.1,293.6A10.12,10.12,0,0,0,92,285.14,9.73,9.73,0,0,0,85.06,283a8.63,8.63,0,0,0-6.22,3.67,7.64,7.64,0,0,0-1.31,6.9,10.83,10.83,0,0,0,4.15,5.93,7.16,7.16,0,0,0,3.44,1.36c1.55.22,2.66-.11,3.32-1,.82-1.08.27-2.65-1.65-4.67l-3.42-2.59L85,290.37l10.55,8-1.65,2.2L92,299.1a4.84,4.84,0,0,1-.87,3.23q-1.77,2.34-5.59,1.65a13.11,13.11,0,0,1-5.64-2.5,14.63,14.63,0,0,1-5.72-7.84,11.45,11.45,0,0,1,10.26-13.72,13.5,13.5,0,0,1,8.95,3q6.25,4.72,5.9,10.65Z"/><path class="cls-3" d="M96.14,311.75l10.77-19.09,2.7,1.53L98.84,313.28Z"/><path class="cls-3" d="M124.47,325.39l-9.91-22.45-6.24,15.36-2.88-1.16,8.46-20.8.86.35,9.76,22.39,6.23-15.32L133.7,305l-8.44,20.74Z"/><path class="cls-3" d="M133.08,327.34,138,306,151.28,309l-.61,2.62-10-2.31-1.49,6.46,7.7,1.77-.57,2.49-7.76-1.79-1.66,7.19,10,2.31-.6,2.62Z"/><path class="cls-3" d="M186.57,330.11a14,14,0,0,1-9.1,3.29,15,15,0,0,1-9.32-2.81,10.08,10.08,0,0,1-4.46-8.37,10.57,10.57,0,0,1,4-8.62,14,14,0,0,1,9.1-3.3,15,15,0,0,1,9.31,2.82,10.1,10.1,0,0,1,4.49,8.37A10.53,10.53,0,0,1,186.57,330.11Zm-2.73-14.94a11,11,0,0,0-7-2.17,10.39,10.39,0,0,0-6.93,2.43,8.3,8.3,0,0,0-2.79,6.69,7.64,7.64,0,0,0,3.3,6.3,11.17,11.17,0,0,0,7,2.18,10.41,10.41,0,0,0,6.91-2.46,8.22,8.22,0,0,0,2.82-6.65A7.71,7.71,0,0,0,183.84,315.17Z"/><path class="cls-3" d="M197.89,331.19l-3.38-21.66,3.07-.48L201,330.71Z"/><path class="cls-3" d="M208.31,329.39,203,308.11l3.31-.82L211,326l8.71-2.17.65,2.61Z"/><path class="cls-3" d="M241.62,318.51c-3.72,1.75-6.85,1.25-9.42-1.48l2.2-2.53a3.91,3.91,0,0,0,2.83,2.07,5.13,5.13,0,0,0,3.52-.4,4.84,4.84,0,0,0,2.44-2.26,3.56,3.56,0,0,0-.06-3.24c-.59-1.25-1.94-1.81-4-1.66s-4,.3-6.15.48c-2.41-.11-4.05-1.09-4.92-3a5.23,5.23,0,0,1,.22-5.25,9.25,9.25,0,0,1,4.18-3.51,8.31,8.31,0,0,1,4.38-.81,6.47,6.47,0,0,1,4,1.78l-2.14,2.36a3.84,3.84,0,0,0-2.64-1.38,5.45,5.45,0,0,0-3,.56,4.45,4.45,0,0,0-2,1.83,2.67,2.67,0,0,0-.16,2.63c.6,1.29,1.94,1.84,4,1.67,1.35-.11,3.36-.3,6.06-.58a5.55,5.55,0,0,1,5.1,3.34,5.85,5.85,0,0,1,0,5.63A9.4,9.4,0,0,1,241.62,318.51Z"/><path class="cls-3" d="M268.16,302.58l-6-8.95-11,7.38,6,8.94-2.67,1.79-12.22-18.2,2.67-1.79,4.76,7.09,10.93-7.34-4.75-7.09,2.72-1.83,12.22,18.2Z"/><path class="cls-3" d="M291.4,278.17a14.08,14.08,0,0,1-4.23,8.71,15,15,0,0,1-8.64,4.47,10.13,10.13,0,0,1-9-2.88,10.58,10.58,0,0,1-3.16-9,13.93,13.93,0,0,1,4.23-8.71,15,15,0,0,1,8.64-4.48,10.1,10.1,0,0,1,9,2.88A10.52,10.52,0,0,1,291.4,278.17ZM279,269.37a11.06,11.06,0,0,0-6.56,3.34,10.38,10.38,0,0,0-3.26,6.57,8.29,8.29,0,0,0,2.65,6.74,7.7,7.7,0,0,0,6.77,2.22,11.17,11.17,0,0,0,6.56-3.34,10.38,10.38,0,0,0,3.24-6.6,8.21,8.21,0,0,0-2.6-6.72A7.69,7.69,0,0,0,279,269.37Z"/><path class="cls-3" d="M297.43,258.47l-2.86,4.07,7.92,5.57-1.94,2.75-17.93-12.61,4.69-6.66a6.07,6.07,0,0,1,4-2.66A6,6,0,0,1,296,250a5.76,5.76,0,0,1,2.47,3.91A6,6,0,0,1,297.43,258.47Zm-8.57-4.55L286.69,257l5.78,4.07,2.74-3.87a2.58,2.58,0,0,0,.08-2.46,4,4,0,0,0-1.4-2,3.08,3.08,0,0,0-2.73-.47A3.9,3.9,0,0,0,288.86,253.92Z"/><path class="cls-3" d="M86.58,72.38,85,70.3,85.25,48,75.07,55.63,73.32,53.3,86.9,43.09l1.63,2.16-.24,22.2,10.86-8.16,1.75,2.32Z"/><path class="cls-3" d="M109.62,57a8.57,8.57,0,0,1-6.13,1.13,7.25,7.25,0,0,1-4.79-3.85A7.4,7.4,0,0,1,98,48.21a8.2,8.2,0,0,1,4.05-4.7,8,8,0,0,1,6.54-1,9,9,0,0,1,4.88,4.52l-11.53,6.4a4.17,4.17,0,0,0,2.95,2,5.32,5.32,0,0,0,3.58-.67c2.21-1.24,3.51-2.79,3.89-4.68h3Q114.53,54.33,109.62,57Zm-6.39-11.22a4.32,4.32,0,0,0-2,2.45,5.35,5.35,0,0,0-.16,3.15l8.45-4.69a4.82,4.82,0,0,0-3-1.56A5.23,5.23,0,0,0,103.23,45.82Z"/><path class="cls-3" d="M123.46,37.49a3.22,3.22,0,0,0-2.07-.07,3.61,3.61,0,0,0-1.88,2,3.43,3.43,0,0,0-.18,2.76l3.35,8.11-3,1.22-5.55-13.44L116.93,37l.95,2.32A4.89,4.89,0,0,1,121,34.71a5.51,5.51,0,0,1,3.29-.1Z"/><path class="cls-3" d="M138.77,45.23a9.73,9.73,0,0,1-6.51-.24,6.92,6.92,0,0,1-4.17-4.82,7.18,7.18,0,0,1,1-6.32,9.31,9.31,0,0,1,5.41-3.61,9.88,9.88,0,0,1,6.65.25,7.16,7.16,0,0,1,4.23,4.95,6.86,6.86,0,0,1-1.14,6.22A9.72,9.72,0,0,1,138.77,45.23Zm-3.25-12.5a6.58,6.58,0,0,0-3.61,2.34,4.49,4.49,0,0,0-.82,4.12,4.78,4.78,0,0,0,2.7,3.25,6,6,0,0,0,4.28.22,6.38,6.38,0,0,0,3.56-2.35,4.44,4.44,0,0,0,.83-4.07A4.83,4.83,0,0,0,139.78,33,5.94,5.94,0,0,0,135.52,32.73Z"/><path class="cls-3" d="M168.66,19.51l1,20.42-3.59.19L165.06,19.7l-7.43.38-.14-2.76L176,16.37l.14,2.76Z"/><path class="cls-3" d="M183.41,40.56a9.83,9.83,0,0,1-6.08-2.35A7,7,0,0,1,175,32.29a7.22,7.22,0,0,1,3-5.66A9.31,9.31,0,0,1,184.23,25a9.85,9.85,0,0,1,6.2,2.41,7.12,7.12,0,0,1,2.38,6.06A6.83,6.83,0,0,1,189.7,39,9.75,9.75,0,0,1,183.41,40.56Zm1-12.87a6.5,6.5,0,0,0-4.18,1,4.5,4.5,0,0,0-2.12,3.62,4.77,4.77,0,0,0,1.5,4,6,6,0,0,0,4,1.61,6.47,6.47,0,0,0,4.13-1.06,4.42,4.42,0,0,0,2.12-3.58,4.82,4.82,0,0,0-1.47-4A6,6,0,0,0,184.42,27.69Z"/><path class="cls-3" d="M222.61,48.29l3.48-10.87-13.34-4.26L209.28,44,206,43l7.07-22.1,3.24,1-2.75,8.61,13.28,4.24,2.75-8.61,3.31,1.05-7.07,22.11Z"/><path class="cls-3" d="M236.15,54.79a8.65,8.65,0,0,1-4.36-4.46,7.29,7.29,0,0,1,.53-6.13,7.4,7.4,0,0,1,4.67-4,8.24,8.24,0,0,1,6.16.74,8,8,0,0,1,4.45,4.89,8.9,8.9,0,0,1-1,6.57l-11.74-6a4.14,4.14,0,0,0-.05,3.57,5.34,5.34,0,0,0,2.56,2.6q3.39,1.72,6.05.62l1.69,2.48Q241.15,57.33,236.15,54.79Zm5.74-11.57a4.27,4.27,0,0,0-3.14-.29A5.4,5.4,0,0,0,236,44.55l8.61,4.4a4.85,4.85,0,0,0-.35-3.34A5.31,5.31,0,0,0,241.89,43.22Z"/><path class="cls-3" d="M260.12,55.37A3.29,3.29,0,0,0,259,53.61a3.66,3.66,0,0,0-2.76-.41,3.49,3.49,0,0,0-2.39,1.39L249,61.89l-2.68-1.78,8-12.11,2.51,1.67-1.39,2.09a4.87,4.87,0,0,1,5.57.05A5.45,5.45,0,0,1,263,54.49Z"/><path class="cls-3" d="M262.27,72.39a9.75,9.75,0,0,1-3.45-5.53,6.94,6.94,0,0,1,1.65-6.16A7.22,7.22,0,0,1,266.25,58a9.44,9.44,0,0,1,6,2.47,9.86,9.86,0,0,1,3.51,5.64,7.17,7.17,0,0,1-1.73,6.29,6.88,6.88,0,0,1-5.8,2.53A9.65,9.65,0,0,1,262.27,72.39Zm8.53-9.69a6.61,6.61,0,0,0-4-1.68A4.46,4.46,0,0,0,263,62.64a4.79,4.79,0,0,0-1.18,4.06,6.08,6.08,0,0,0,2.2,3.67A6.48,6.48,0,0,0,267.93,72a4.45,4.45,0,0,0,3.84-1.6,4.81,4.81,0,0,0,1.2-4A6,6,0,0,0,270.8,62.7Z"/><path class="cls-3" d="M298.64,175A123.64,123.64,0,1,1,175,51.37,123.64,123.64,0,0,1,298.64,175Z"/><path class="cls-4" d="M298.64,175A123.64,123.64,0,1,1,175,51.37,123.64,123.64,0,0,1,298.64,175Z"/><g class="cls-5"><path class="cls-6" d="M70.35,221.81,64.24,199.1l76.17-94.55L59.23,105l7.16-25H186l5.39,18.06-81.63,98.39H315.92l-7.26,25.28Z"/><path class="cls-6" d="M157.37,277l44.71-155.87h33.77l-22,74.2h31.5l22-74.2h35.29L257.93,277H222.65L241,213h-31.5l-18.36,64Z"/></g><path class="cls-3" d="M73.36,188.63S64.18,198.89,67,209.41c0,0,2.56,12.4,14.74,12.4l1.13,5.84H70L59,215.47V192.7l8.79-9.47Z"/><path class="cls-3" d="M174.48,80.08S186,79.81,188.69,89a18.52,18.52,0,0,1-3.63,16.82L197.6,109l18.53-19.91L197.6,75.19l-28.25-9.26Z"/></svg>