<svg id="圖層_1" data-name="圖層 1" xmlns="http://www.w3.org/2000/svg" viewBox="0 0 425.2 113.39"><defs><style>.cls-1{fill:#fff;}</style></defs><title>logo-w</title><path class="cls-1" d="M36,87.61H96.23l-5,14.62H7.09l3.85-10.52L65.58,26H8l5.77-14.88H93.42l-2.57,9.62Z"/><path class="cls-1" d="M189,104.41l-17.19-5.9V62.34H128.2V98.51l-17.45,5.9V9H128.2V47.71h43.61V9H189Z"/><path class="cls-1" d="M302.75,59.63a5.55,5.55,0,0,1,1.07.11,5.81,5.81,0,0,1,1.18.32,2.35,2.35,0,0,1,1,.85,2.87,2.87,0,0,1,.43,1.6A2.67,2.67,0,0,1,305,65.07a5.23,5.23,0,0,1-1.18.33,5.54,5.54,0,0,1-1.07.1H279.37A104.56,104.56,0,0,0,282,76.82c.71-.85,1.61-2,2.68-3.52l2.77-4a6.41,6.41,0,0,1,4.91-2.56,7.83,7.83,0,0,1,5.24,2,6.24,6.24,0,0,1,2.35,4.6c0,1.49-1.68,3.77-5,6.83A55.68,55.68,0,0,1,290.47,84l-4.16,3.2c.42.72.88,1.43,1.38,2.14.64,1,1.25,1.89,1.82,2.67,1.71,2.06,3.06,3.1,4.06,3.1.78,0,1.42-.54,1.92-1.61a33.17,33.17,0,0,0,1.71-6.4Q298,83,301.58,83a6.19,6.19,0,0,1,3.74,1.17,4.22,4.22,0,0,1,1.92,3.74,26.52,26.52,0,0,1-2.57,10.47,14.08,14.08,0,0,1-6.08,6.83,13.07,13.07,0,0,1-3,1l-1.28.22h-1a16.05,16.05,0,0,1-11.21-4.7,33.89,33.89,0,0,1-3.42-4.06c-.42-.57-.85-1.21-1.28-1.92L276.37,94q-5.12,3.11-10,5.66a76.37,76.37,0,0,1-7.59,3.41,47.48,47.48,0,0,1-4.91,1.82,10.43,10.43,0,0,1-2.14.54c-2,0-3-1-3-2.89a2.57,2.57,0,0,1,.86-2,2.43,2.43,0,0,1,.85-.53,2.35,2.35,0,0,1,.75-.43,107.41,107.41,0,0,0,21.36-13.35,87.15,87.15,0,0,1-3.74-12l-1.06-5-.65-3.74H253.84v6.2l1.39-.11A29.14,29.14,0,0,1,259,72.77q6.3,2.13,8.23,3.84A4.44,4.44,0,0,1,268.58,80a8.21,8.21,0,0,1-1.71,4.91,4.94,4.94,0,0,1-4.06,2.35,4.38,4.38,0,0,1-2.88-1.07l-1.61-2a72.33,72.33,0,0,0-5-6.73,46.07,46.07,0,0,1-4.6,13.78,38.73,38.73,0,0,1-6.51,9.08L238.46,104c-1.78,1.42-3.06,2.14-3.84,2.14-2,0-3-1-3-3a4,4,0,0,1,.53-1.49,19.47,19.47,0,0,1,1.28-2.13,4.15,4.15,0,0,1,.64-1.07l1.5-2.35A49.69,49.69,0,0,0,239,85.47a51.06,51.06,0,0,0,1.18-10.14V65.5a9.66,9.66,0,0,1-2.24-.21q.31,3.31-2.89,3.31a2.86,2.86,0,0,1-2.24-1A45.13,45.13,0,0,1,229,62.3V98.4a13.89,13.89,0,0,1-.86,5.76q-1.4,2.9-5.77,2.89t-5.87-2.89q-.86-1.6-.85-5.76V69.46a92.49,92.49,0,0,1-6,9.5,3.81,3.81,0,0,1-2.89,1.82,2.65,2.65,0,0,1-3-3,1.83,1.83,0,0,1,.22-.86,10.73,10.73,0,0,1,.74-1.71,100.79,100.79,0,0,0,8-21.25,99.91,99.91,0,0,0,2.78-18.16h-5.23a5.46,5.46,0,0,1-1.07-.1,3.63,3.63,0,0,1-1.18-.43,2.86,2.86,0,0,1,0-4.91,3.22,3.22,0,0,1,1.18-.43,5.47,5.47,0,0,1,1.07-.11h5.34V15.42q0-4.06.85-5.67c.92-1.92,2.85-2.88,5.77-2.88s4.94.93,5.87,2.78q.85,1.61.86,5.77V29.83h4.16a5.55,5.55,0,0,1,1.07.11,3.22,3.22,0,0,1,1.18.43,2.58,2.58,0,0,1,1.38,2.45,2.68,2.68,0,0,1-1.38,2.57,6.54,6.54,0,0,1-1.18.32,5.54,5.54,0,0,1-1.07.1H229v7.8a62.36,62.36,0,0,0,3.95,12.07q.85,1.92,1.92,3.84l1.49,2.56a2.75,2.75,0,0,1,1.5-2.13,3.73,3.73,0,0,1,1-.32h27.45q-.86-7.47-1.5-15.91-.53-7.69-.85-15.81A64,64,0,0,1,259.71,33l-5.12,5.76.64-.42a4,4,0,0,1,1-.11,2.77,2.77,0,0,1,1.6.43l.85.85A72,72,0,0,1,263,46.28q2.36,4.17,2.35,5.55c0,3.78-1.92,5.66-5.76,5.66a3.51,3.51,0,0,1-3.32-1.7,9,9,0,0,1-1-3.53q-6.84,1.92-12.39,3a37.49,37.49,0,0,1-5.77,1q-3.84,0-3.84-4.59,0-2.77,1.92-3.63a5.21,5.21,0,0,1,1.81-.43H239a115.29,115.29,0,0,0,6.63-10.14l-.64-.33-.75-.85c-.57-.71-1.85-2.46-3.85-5.23l-6.4-7.8a3.1,3.1,0,0,1-.64-1.92c0-2,.95-3,2.88-3a2.81,2.81,0,0,1,1.39.43,35.6,35.6,0,0,1,3.41,2q1.06-2.23,1.82-4.27l1.39-4.59A10.06,10.06,0,0,1,245.51,9a3.91,3.91,0,0,1,3.2-1.28,7,7,0,0,1,3.85,1.17,3.68,3.68,0,0,1,2,3.1c0,1.28-1.11,3.38-3.31,6.3-.79,1.07-1.71,2.21-2.78,3.42l-2.35,2.67,3.31,2.35,1.28,1.17a64.09,64.09,0,0,1,3.31-6.62A4,4,0,0,1,257.26,20l1.06.11a7.63,7.63,0,0,1,1.71.42,6.61,6.61,0,0,1,3.63,2.78l-.21-10.57q0-4.07,3.1-5.67l2.35-.64a3.53,3.53,0,0,1,.85-.1h.54q5.55,0,6.62,4.38v8.54a2.33,2.33,0,0,1,1.28-.43,2.1,2.1,0,0,1,1.07.32A22.22,22.22,0,0,1,282,20.86q1.39-3.19,3.21-8.54,1.27-3.86,4.38-3.85a8.1,8.1,0,0,1,4.27,1.18A4,4,0,0,1,296,13.07q0,1.71-3.21,5.76-1.17,1.5-2.78,3.31c-.71.72-1.53,1.61-2.45,2.67l2.56,1.82,1.07,1,2.88-5.77,1.07-1.17a5.79,5.79,0,0,1,1.18-.53,4.45,4.45,0,0,1,1.49-.22q6.74,0,6.73,5.55a4.11,4.11,0,0,1-.11,1,3.47,3.47,0,0,1-.53,1.17,42,42,0,0,1-3.53,4.17q-4.38,4.8-7.9,8.33L288,44.57a62.55,62.55,0,0,0,7.59-.64l-.86-3.63a4.56,4.56,0,0,1-.21-1.07,2.55,2.55,0,0,1,2.88-2.88q1.5,0,4.06,3.42l1.71,2.35c.71,1,1.32,1.92,1.82,2.77q2.13,3.53,2.13,5.13,0,5.44-5.66,5.44c-2.28,0-3.81-2-4.59-6.08l-6,1.6a19.52,19.52,0,0,1,4.27,3.31,4.33,4.33,0,0,1,.64,1.07,4,4,0,0,1,.11,1c0,1.35-.86,2.45-2.57,3.31ZM246.36,47.45c2.07-.07,4.74-.24,8-.53a7.65,7.65,0,0,0-.21-1.28l-.75-3.52-.1-1.07a3.33,3.33,0,0,1,.31-1.28Zm34.29-2.56q2-2.78,3.63-5.23c.78-1.14,1.46-2.21,2-3.21a16.53,16.53,0,0,1-3.21-4.05,60.61,60.61,0,0,0-3.63-5l-2.56-3.1.43,22.21A3.87,3.87,0,0,1,280.65,44.89ZM289,59.63a4.54,4.54,0,0,1-1-1.28l-3.3-5.88a37,37,0,0,1-4.06.64,3.74,3.74,0,0,1-3-1.6c.06,1,.17,2,.31,3.1l.54,5Z"/><path class="cls-1" d="M345.7,54.45a7.3,7.3,0,0,1-5.55,2.78q-3.11,0-6.52-5.34a82,82,0,0,0-5.12-7.16,65.94,65.94,0,0,0-4.81-5.12c-1.14-1.14-1.71-2.07-1.71-2.78,0-1.92,1-2.88,3-2.88s6.44,1.81,13.14,5.44q6.4,3.63,8.44,5.66a5.47,5.47,0,0,1,1.49,3.85A8.06,8.06,0,0,1,345.7,54.45Zm6.51,7.16q0,1.17-3.31,10.78c-1.14,3.28-2.34,6.55-3.63,9.83q-2.13,5.66-4.38,10.57a89.22,89.22,0,0,1-5.34,10.36,5.24,5.24,0,0,1-4.27,2.46,7.64,7.64,0,0,1-5.66-2.57,7.56,7.56,0,0,1-2.24-5.12,4.3,4.3,0,0,1,.64-2.25l3.63-4.7a163.71,163.71,0,0,0,9.72-13.77q1.81-3,4.27-7.37l5.13-9.4a2.87,2.87,0,0,1,2.56-1.71A2.55,2.55,0,0,1,352.21,61.61Zm-1.06-34.18a6.49,6.49,0,0,1-4.92,2.35q-3.09,0-7.36-6.41A49.21,49.21,0,0,0,333.42,17c-1.93-2-3.42-3.45-4.49-4.38l-.32-.32a1.67,1.67,0,0,1-.32-.42,1.88,1.88,0,0,1-.43-1.18c0-2,1-3,3.1-3A19.75,19.75,0,0,1,335.34,9a60.11,60.11,0,0,1,8.44,3.63q6.18,3.21,8.11,5.24a5.23,5.23,0,0,1,1.6,3.84A8.1,8.1,0,0,1,351.15,27.43Zm28.4-12.6a8.61,8.61,0,0,1,.11-1.39,8.3,8.3,0,0,1,.75-2.67c1.07-2.06,3.17-3.1,6.3-3.1s5.13,1,6.19,2.89a12.27,12.27,0,0,1,.86,5.44V30.31H407q11.12,0,11.11,10.26V95.46q0,4.7-2.46,7.26-2.77,3-8.65,3H366.21q-11.11,0-11.11-10.25V40.57a10.37,10.37,0,0,1,2.45-7.27c1.93-2,4.81-3,8.66-3h13.34Zm0,21.36h-7.47q-3.1,0-3.1,3.1v25.2h10.57Zm0,34.28H369V96.64q0,3.09,3.1,3.09h7.47Zm14.21-6h10.89V39.29q0-3.1-3.09-3.1h-7.8Zm0,35.24h7.8q3.09,0,3.09-3.09V70.47H393.76Z"/></svg>